<svg width="1905" height="816" viewBox="0 0 1905 816" fill="none" xmlns="http://www.w3.org/2000/svg">
<path fill-rule="evenodd" clip-rule="evenodd" d="M1905 0V1.00195C1857.2 16.9655 1808.25 37.4455 1758.77 62.6328C1707.37 88.8328 1669.53 118.699 1650.89 149.724L1650.89 149.729C1647.1 155.961 1643.88 161.956 1641.26 167.743C1644.77 163.008 1648.66 158.109 1652.85 152.994L1652.86 152.989C1677.04 123.751 1717.73 94.4254 1770.86 67.2832L1770.87 67.2822C1816.02 44.2796 1860.7 23.8662 1905 6.38184V9.63086C1861.19 26.9726 1816.98 47.1875 1772.29 69.9512C1720.15 96.5874 1680.29 125.211 1656.33 153.574L1655.2 154.925C1649.94 161.339 1645.2 167.364 1641.12 173.119C1641.16 173.322 1641.19 173.525 1641.23 173.729C1646.3 168.769 1651.86 163.59 1657.76 158.104L1657.76 158.102L1659.13 156.842C1688.1 130.356 1731.05 102.361 1784.72 74.8291L1784.72 74.8281C1825.03 54.2186 1864.97 34.6745 1905 16.5947V19.915C1865.46 37.8038 1826 57.1227 1786.15 77.4941C1731.76 105.401 1688.55 133.706 1659.84 160.312C1653.37 166.341 1647.35 171.955 1641.95 177.289C1642 177.519 1642.05 177.75 1642.1 177.98C1648.42 173.268 1655.26 168.307 1662.47 163.006L1664.05 161.853C1697.39 137.587 1743.24 110.575 1798.54 82.1172C1834.03 63.9061 1869.36 45.7337 1905 27.8457V31.2324C1869.86 48.8816 1835.01 66.8081 1799.98 84.7812C1743.86 113.657 1697.59 140.993 1664.3 165.427C1656.65 171.052 1649.46 176.263 1642.88 181.185C1642.97 181.502 1643.05 181.82 1643.14 182.138C1650.66 177.721 1658.72 173.043 1667.19 168.022C1704.97 145.578 1754.67 119.238 1812.21 89.4229L1812.22 89.4199C1842.96 73.5789 1873.81 57.1472 1905 40.21V43.6553C1874.31 60.3133 1843.94 76.4835 1813.66 92.082C1756.11 121.899 1706.48 148.206 1668.78 170.602C1660 175.807 1651.7 180.619 1643.99 185.146C1644.13 185.598 1644.27 186.05 1644.41 186.5C1653.05 182.391 1662.26 178.012 1671.93 173.316C1714.02 152.882 1766.99 127.71 1825.93 97.0684C1851.93 83.5379 1878.3 69.1468 1905 53.8359V57.3301C1878.8 72.3283 1852.91 86.4409 1827.38 99.7266L1821.87 102.585C1765.09 131.962 1714.06 156.226 1673.3 176.011L1669.55 177.83C1661.06 181.934 1652.98 185.772 1645.36 189.396C1645.48 189.735 1645.6 190.073 1645.72 190.411C1711.78 164.502 1805.15 126.956 1905 68.0879V71.6025C1805.47 130.103 1712.5 167.469 1646.76 193.249C1651.92 206.885 1659.52 220.11 1668.09 233.254C1672.92 240.671 1678.05 248.041 1683.2 255.438C1688.35 262.829 1693.53 270.248 1698.46 277.73C1708.3 292.691 1717.16 307.984 1722.75 324.022L1722.75 324.025C1726.13 333.766 1725.56 342.086 1721.89 349.368C1718.26 356.587 1711.65 362.639 1703.22 368.065C1693.44 374.377 1681.05 379.967 1667.69 385.611C1654.28 391.273 1639.88 396.993 1625.92 403.607C1551.56 439.025 1483.06 478.643 1423.74 522.529C1419.54 526.437 1415.43 530.372 1411.42 534.337L1411.42 534.339C1409.08 536.649 1406.69 539.01 1404.29 541.417C1403.61 542.349 1402.93 543.282 1402.27 544.217C1397.87 550.374 1393.33 556.799 1388.85 563.426C1385.59 571.098 1382.37 579.005 1379.46 587.061C1378.53 593.901 1377.78 600.822 1377.35 607.78C1378.6 616.176 1380.24 624.595 1382.43 632.973C1386.83 642.57 1391.86 652.078 1397.68 661.412C1403.19 668.257 1409.07 674.996 1415.35 681.599C1432.61 676.462 1451.02 670.511 1469.71 664.428C1505.86 652.665 1543.07 640.421 1574.92 632.757C1590.85 628.924 1605.49 626.223 1618.02 625.306C1630.51 624.391 1641.1 625.233 1648.81 628.65C1678.33 641.745 1712.02 658.889 1748.14 671.823C1784.23 684.744 1822.55 693.379 1861.14 689.467C1875.87 687.973 1890.6 684.574 1905 679.752V682.931C1890.74 687.635 1876.14 690.96 1861.52 692.442C1822.3 696.418 1783.49 687.632 1747.19 674.635C1710.92 661.65 1676.96 644.379 1647.64 631.376C1640.64 628.27 1630.66 627.386 1618.32 628.289C1606.02 629.19 1591.56 631.85 1575.71 635.665C1543.99 643.296 1506.91 655.496 1470.72 667.272C1452.56 673.181 1434.62 678.984 1417.71 684.04C1422.32 688.068 1427.06 692.04 1431.93 695.949C1449.9 691.392 1469.34 685.78 1489.12 680.003C1522.65 670.212 1557.14 659.951 1586.96 653.647C1601.88 650.495 1615.68 648.322 1627.64 647.697C1639.57 647.074 1649.82 647.982 1657.57 651.11C1686.54 662.824 1719.02 678.01 1753.64 689.375C1788.23 700.727 1824.74 708.189 1861.55 704.457C1876.15 702.977 1890.72 699.925 1905 695.65V698.795C1890.85 702.973 1876.41 705.965 1861.94 707.433C1824.53 711.225 1787.56 703.632 1752.77 692.213C1718.02 680.807 1685.26 665.506 1656.5 653.877C1649.37 650.998 1639.64 650.068 1627.87 650.684C1616.13 651.297 1602.5 653.438 1587.66 656.574C1557.97 662.849 1523.61 673.069 1490.04 682.874C1471.07 688.416 1452.34 693.826 1434.88 698.302C1439.72 702.117 1444.68 705.871 1449.77 709.56C1468.1 705.861 1488.2 700.874 1508.71 695.681C1539.6 687.855 1571.39 679.568 1599.22 674.617C1613.14 672.141 1626.11 670.491 1637.51 670.154C1648.54 669.829 1658.22 670.726 1665.9 673.365L1666.64 673.626C1694.97 683.923 1726.22 697.156 1759.34 706.962C1792.41 716.755 1827.17 723.063 1862.28 719.503C1876.62 718.049 1890.93 715.299 1905 711.503V714.62C1891.06 718.336 1876.88 721.036 1862.66 722.478C1827 726.093 1791.82 719.678 1758.55 709.826C1725.32 699.987 1693.79 686.653 1665.67 676.433L1665.67 676.432C1658.4 673.784 1648.9 672.812 1637.68 673.144C1626.48 673.474 1613.67 675.098 1599.82 677.562C1572.13 682.489 1540.46 690.741 1509.52 698.579C1490.03 703.517 1470.81 708.292 1453.09 711.949C1458.06 715.483 1463.15 718.957 1468.36 722.362C1486.83 719.78 1507.33 715.695 1528.28 711.359C1556.56 705.509 1585.65 699.208 1611.48 695.612C1636.84 692.082 1659.36 691.11 1674.97 695.913L1675.71 696.146C1731.1 713.987 1796.38 741.303 1863.16 734.533C1877.2 733.11 1891.21 730.626 1905 727.259V730.356C1891.33 733.657 1877.46 736.098 1863.54 737.509C1795.95 744.361 1729.84 716.702 1674.84 698.987L1674.84 698.986C1659.94 694.158 1637.75 694.985 1611.97 698.573C1586.27 702.152 1557.3 708.426 1528.97 714.288C1509.29 718.36 1489.91 722.233 1472.2 724.843C1477.24 728.07 1482.4 731.234 1487.67 734.333C1505.96 733.119 1526.46 730.252 1547.46 727.08C1573.12 723.205 1599.52 718.877 1623.36 716.618C1647.17 714.363 1668.67 714.144 1684.46 718.608L1684.46 718.609C1738.27 733.894 1800.35 756.018 1863.58 749.607C1877.47 748.187 1891.33 745.877 1905 742.807V745.891C1891.46 748.904 1877.73 751.176 1863.97 752.584C1800.01 759.068 1737.2 736.681 1683.71 721.484C1668.5 717.187 1647.5 717.343 1623.73 719.595C1599.99 721.843 1573.71 726.152 1547.99 730.037C1528.63 732.961 1509.59 735.645 1492.27 737.005C1497.29 739.882 1502.41 742.7 1507.63 745.455C1525.65 745.841 1545.98 744.485 1566.87 742.761C1589.89 740.86 1613.61 738.511 1635.48 737.594C1656.66 736.706 1676.26 737.15 1692 740.691L1693.51 741.044C1745.72 753.688 1804.61 770.618 1864.3 764.567C1877.95 763.172 1891.56 761.039 1905 758.259V761.329C1891.69 764.061 1878.2 766.161 1864.68 767.543C1804.36 773.658 1744.87 756.54 1692.87 743.949L1691.4 743.606C1676.08 740.16 1656.81 739.696 1635.69 740.582C1613.89 741.496 1590.29 743.835 1567.19 745.741C1548.52 747.282 1530.19 748.539 1513.51 748.51C1518.32 750.966 1523.21 753.371 1528.19 755.721C1528.23 755.726 1528.27 755.732 1528.31 755.737C1545.95 757.929 1565.79 758.449 1586.23 758.521C1627.01 758.663 1670.31 757.005 1702.56 763.481L1712.1 765.386C1760.12 774.96 1812.24 784.878 1865.01 779.527C1878.42 778.169 1891.78 776.192 1905 773.657V776.716C1891.91 779.208 1878.67 781.157 1865.4 782.503C1808.57 788.264 1752.56 776.482 1702.04 766.412H1702.04C1670.17 760.012 1627.34 761.655 1586.3 761.512C1569.09 761.452 1552.21 761.074 1536.68 759.638C1537.59 760.048 1538.5 760.458 1539.42 760.864L1541.53 761.792C1544.56 763.121 1547.63 764.428 1550.73 765.714C1567.57 769.688 1586.05 772.415 1605.17 774.614C1640.71 778.704 1678.5 780.971 1711.18 786.137C1760.2 793.846 1812.68 800.038 1865.45 794.688C1878.7 793.345 1891.92 791.48 1905 789.135V792.187C1892.04 794.494 1878.96 796.334 1865.83 797.664C1812.66 803.055 1759.86 796.809 1710.78 789.091L1710.78 789.09C1678.16 783.932 1640.71 781.706 1604.9 777.585C1591.89 776.088 1579.11 774.339 1566.9 772.107C1652.54 804.42 1759.36 820.476 1866.17 809.648C1879.17 808.33 1892.15 806.574 1905 804.41V807.456C1892.27 809.587 1879.43 811.319 1866.55 812.624C1752.53 824.183 1638.47 805.246 1549.87 768.563C1536.56 765.408 1524.22 761.465 1513.38 756.375C1502.42 754.193 1492.58 751.093 1484.37 746.688C1472.86 745.023 1462.89 742.068 1455.24 737.225C1452.42 736.938 1449.7 736.561 1447.12 736.081C1438.83 734.542 1431.75 731.94 1426.37 727.882C1423.96 727.722 1421.64 727.488 1419.43 727.167C1410.71 725.902 1403.47 723.305 1398.41 718.816L1398.41 718.815C1398.35 718.76 1398.29 718.704 1398.23 718.648C1395.84 718.581 1393.55 718.432 1391.38 718.192C1382.35 717.198 1375.02 714.632 1370.34 709.752C1370.23 709.644 1370.13 709.533 1370.03 709.425C1367.65 709.441 1365.38 709.371 1363.22 709.206C1353.88 708.488 1346.44 705.967 1342.12 700.694L1342.11 700.692C1342.01 700.569 1341.91 700.444 1341.81 700.32C1339.56 700.398 1337.42 700.393 1335.38 700.298C1325.77 699.846 1318.24 697.363 1314.35 691.661C1295.15 663.498 1307.08 631.865 1330.52 602.245C1332.48 599.777 1334.52 597.318 1336.63 594.871C1298.51 534.751 1288.51 474.05 1311.44 416.702C1335.3 357.01 1394.72 301.267 1494.39 253.626L1496.75 252.503C1529.07 237.18 1563.08 223.134 1597.43 209.437C1600.19 208.053 1602.96 206.67 1605.73 205.288C1609.57 202.809 1613.44 200.328 1617.34 197.839C1619.65 195.868 1621.99 193.891 1624.36 191.905C1624.75 191.439 1625.14 190.971 1625.53 190.503L1627.14 188.601C1627.91 187.695 1628.7 186.783 1629.52 185.867C1629.63 185.664 1629.74 185.46 1629.85 185.257L1629.85 185.254L1630.37 184.31C1631.44 182.38 1632.61 180.433 1633.86 178.463C1634.44 176.649 1635.08 174.819 1635.79 172.973C1636.05 170.138 1636.45 167.278 1637 164.387C1636.35 155.978 1636.85 147.336 1638.77 138.407L1638.77 138.405L1638.97 137.55C1647.26 101.354 1681.56 69.6241 1729.67 45.2168L1729.67 45.2158L1732.36 43.8633C1769.58 25.2351 1806.43 10.8651 1842.34 0H1853C1813.35 11.3608 1772.44 26.9763 1731.09 47.8887C1682.83 72.3721 1649.38 103.871 1641.72 139.108C1640.71 143.775 1640.11 148.363 1639.87 152.883C1640.85 149.7 1641.98 146.475 1643.28 143.201L1643.28 143.195C1657.03 109.01 1693.15 77.983 1743.35 52.5186L1743.35 52.5176C1786.93 30.4972 1830.03 13.1933 1871.94 0H1882.18C1837.52 13.4699 1791.42 31.6161 1744.77 55.1904C1694.79 80.5456 1659.43 111.161 1646.08 144.368C1643.65 150.496 1641.8 156.424 1640.53 162.194C1642.79 157.62 1645.38 152.937 1648.3 148.135C1667.35 116.429 1705.76 86.2576 1757.34 59.9639L1757.34 59.9629C1805.08 35.667 1852.32 15.7363 1898.54 0H1905ZM1526.13 758.462C1527.37 758.918 1528.63 759.363 1529.9 759.797C1529.07 759.408 1528.23 759.017 1527.4 758.625C1526.97 758.571 1526.55 758.518 1526.13 758.462ZM1504.15 748.346C1506.53 749.613 1508.94 750.867 1511.38 752.105C1512.32 752.586 1513.29 753.055 1514.26 753.516C1515.62 753.782 1516.99 754.036 1518.38 754.275C1514.51 752.359 1510.68 750.408 1506.91 748.426C1505.99 748.403 1505.07 748.377 1504.15 748.346ZM1493.76 747.742C1496.37 748.768 1499.12 749.7 1501.99 750.544C1500.42 749.704 1498.87 748.859 1497.33 748.008C1496.13 747.93 1494.94 747.841 1493.76 747.742ZM1485.11 737.493C1489.34 740.066 1493.68 742.592 1498.13 745.067C1499.05 745.124 1499.98 745.176 1500.92 745.222C1496.2 742.658 1491.56 740.042 1487.01 737.378C1486.38 737.418 1485.74 737.457 1485.11 737.493ZM1479.89 737.749C1478.55 737.802 1477.22 737.845 1475.9 737.876C1475.72 737.88 1475.55 737.883 1475.37 737.887C1478.14 739.626 1480.99 741.344 1483.9 743.039C1484.35 743.299 1484.81 743.553 1485.27 743.805C1487.18 744.073 1489.13 744.305 1491.14 744.506C1487.3 742.291 1483.56 740.037 1479.89 737.749ZM1462.49 737.754C1466.76 739.68 1471.6 741.188 1476.95 742.341C1474.56 740.889 1472.23 739.42 1469.94 737.937C1467.4 737.926 1464.91 737.867 1462.49 737.754ZM1462.47 726.163C1461.21 726.319 1459.96 726.468 1458.72 726.607C1462.58 729.435 1466.6 732.216 1470.77 734.945C1472.29 734.944 1473.83 734.927 1475.39 734.893C1470.96 732.035 1466.66 729.123 1462.47 726.163ZM1454.37 727.064C1452.91 727.207 1451.47 727.338 1450.04 727.454C1448.94 727.543 1447.86 727.621 1446.78 727.693C1449.73 729.891 1452.81 732.061 1456.01 734.196C1456.07 734.238 1456.14 734.278 1456.2 734.319C1459.11 734.596 1462.15 734.775 1465.31 734.868C1461.53 732.309 1457.88 729.706 1454.37 727.064ZM1466.83 725.602C1471.29 728.699 1475.89 731.74 1480.63 734.721C1481.21 734.696 1481.8 734.669 1482.39 734.64C1477.4 731.644 1472.51 728.59 1467.73 725.479C1467.43 725.521 1467.13 725.561 1466.83 725.602ZM1442.22 727.952C1438.77 728.11 1435.44 728.169 1432.24 728.116C1436.49 730.388 1441.64 732.037 1447.59 733.143C1448.31 733.276 1449.04 733.396 1449.78 733.514C1447.17 731.682 1444.66 729.827 1442.22 727.952ZM1428.52 716.372C1426.91 716.607 1425.33 716.827 1423.77 717.029C1422.04 717.255 1420.32 717.459 1418.64 717.642C1421.13 719.877 1423.76 722.087 1426.54 724.266L1427.42 724.952C1430.93 725.153 1434.66 725.193 1438.59 725.089C1435.05 722.228 1431.69 719.321 1428.52 716.372ZM1439.09 714.647C1436.78 715.057 1434.51 715.441 1432.27 715.796C1435.68 718.884 1439.3 721.925 1443.13 724.912C1445.28 724.802 1447.47 724.656 1449.72 724.474C1450.09 724.443 1450.47 724.408 1450.85 724.375C1446.75 721.186 1442.84 717.942 1439.09 714.647ZM1414.68 718.036C1410.64 718.399 1406.77 718.618 1403.11 718.675C1407.34 721.409 1412.95 723.215 1419.79 724.208C1420.55 724.318 1421.32 724.417 1422.11 724.507C1419.51 722.377 1417.03 720.219 1414.68 718.036ZM1442.82 713.971C1446.75 717.361 1450.86 720.695 1455.18 723.969C1456.4 723.845 1457.63 723.713 1458.87 723.571C1454.3 720.253 1449.89 716.875 1445.62 713.441C1444.68 713.622 1443.75 713.798 1442.82 713.971ZM1453.34 715.748C1456.55 718.214 1459.84 720.648 1463.2 723.051C1463.43 723.022 1463.66 722.99 1463.89 722.961C1460.32 720.588 1456.8 718.183 1453.34 715.748ZM1402.83 705.604C1401 705.951 1399.2 706.281 1397.43 706.586C1395.34 706.946 1393.28 707.274 1391.27 707.571C1393.74 710.314 1396.43 713.02 1399.36 715.685C1403.22 715.75 1407.37 715.6 1411.78 715.267C1408.55 712.094 1405.57 708.871 1402.83 705.604ZM1387.75 708.064C1382.99 708.692 1378.47 709.12 1374.26 709.312C1378.25 712.462 1384.09 714.389 1391.64 715.22C1392.67 715.334 1393.74 715.426 1394.83 715.499C1392.29 713.053 1389.93 710.574 1387.75 708.064ZM1415.52 702.973C1412.33 703.682 1409.21 704.342 1406.17 704.951C1409.07 708.328 1412.24 711.656 1415.7 714.929C1418.16 714.691 1420.7 714.402 1423.31 714.063C1424.11 713.959 1424.92 713.85 1425.74 713.736C1422.09 710.203 1418.69 706.613 1415.52 702.973ZM1424.66 700.846C1422.69 701.321 1420.74 701.782 1418.8 702.226C1422.1 705.939 1425.64 709.597 1429.45 713.193C1431.68 712.856 1433.94 712.49 1436.24 712.096C1432.17 708.404 1428.32 704.651 1424.66 700.846ZM1428 700.033C1431.77 703.897 1435.74 707.703 1439.94 711.444C1440.81 711.287 1441.69 711.126 1442.57 710.961C1438.07 707.252 1433.72 703.481 1429.54 699.653C1429.02 699.781 1428.51 699.907 1428 700.033ZM1377.97 694.773C1375.71 695.294 1373.49 695.786 1371.31 696.242C1368.86 696.755 1366.46 697.226 1364.12 697.652C1366.22 700.615 1368.59 703.539 1371.26 706.417C1375.62 706.329 1380.37 705.954 1385.46 705.331C1382.64 701.863 1380.16 698.341 1377.97 694.773ZM1360.9 698.217C1355.45 699.133 1350.33 699.784 1345.62 700.117C1349.29 703.598 1355.25 705.6 1363.38 706.225C1364.63 706.321 1365.93 706.383 1367.27 706.414C1364.91 703.717 1362.79 700.983 1360.9 698.217ZM1392.4 691.203C1388.51 692.226 1384.71 693.182 1381.02 694.062C1383.31 697.719 1385.94 701.326 1388.92 704.875C1391.48 704.517 1394.13 704.106 1396.84 703.639C1398.1 703.421 1399.38 703.19 1400.67 702.951C1397.6 699.091 1394.85 695.172 1392.4 691.203ZM1403.94 688.049C1401.05 688.865 1398.2 689.651 1395.4 690.405C1397.93 694.433 1400.78 698.409 1403.97 702.323C1407.01 701.729 1410.12 701.078 1413.3 700.379C1409.91 696.324 1406.8 692.212 1403.94 688.049ZM1406.96 687.19C1409.89 691.401 1413.08 695.558 1416.57 699.651C1418.45 699.225 1420.35 698.782 1422.27 698.324C1418.46 694.235 1414.86 690.086 1411.47 685.887C1409.96 686.329 1408.45 686.762 1406.96 687.19ZM1415.21 685.788C1418.48 689.751 1421.93 693.666 1425.59 697.526C1426.02 697.421 1426.46 697.312 1426.89 697.205C1422.98 693.551 1419.21 689.848 1415.57 686.1C1415.45 685.996 1415.33 685.892 1415.21 685.788ZM1338.34 597.542C1336.47 599.73 1334.65 601.928 1332.91 604.132C1309.58 633.603 1298.85 663.659 1316.83 690.028C1319.86 694.465 1326.07 696.87 1335.45 697.311C1336.76 697.373 1338.14 697.393 1339.56 697.378C1320.38 671.046 1325.93 641.548 1341.69 613.294C1342.76 611.363 1343.89 609.436 1345.06 607.515C1344.24 606.341 1343.43 605.167 1342.62 603.99L1342.62 603.989C1341.16 601.842 1339.73 599.692 1338.34 597.542ZM1346.97 610.231C1346.06 611.751 1345.18 613.272 1344.33 614.796C1328.48 643.218 1323.62 671.922 1343.18 697.266C1348 697.022 1353.33 696.404 1359.1 695.468C1345.07 672.999 1345.63 648.529 1353.33 624.497C1353.74 623.223 1354.17 621.95 1354.61 620.678C1352 617.213 1349.45 613.73 1346.97 610.231ZM1356.2 625.473C1348.57 649.282 1348.19 673.124 1362.28 694.929C1364.97 694.452 1367.75 693.915 1370.61 693.315C1372.5 692.921 1374.42 692.5 1376.36 692.057C1366.14 674.044 1363.32 654.939 1364.82 635.813C1364.87 635.166 1364.93 634.518 1364.99 633.871C1362.2 630.461 1359.47 627.028 1356.82 623.577C1356.61 624.209 1356.4 624.841 1356.2 625.473ZM1367.74 637.202C1366.46 655.689 1369.35 674.048 1379.39 691.355C1383.08 690.484 1386.88 689.533 1390.78 688.514C1382.96 675.105 1378.38 661.166 1376.01 647.066C1376 646.967 1375.98 646.866 1375.97 646.767C1373.16 643.6 1370.42 640.411 1367.74 637.202ZM1379.79 651.031C1382.32 663.512 1386.72 675.83 1393.76 687.725C1396.52 686.987 1399.33 686.218 1402.17 685.418C1396.83 677.303 1392.42 669.01 1388.77 660.609C1385.71 657.442 1382.72 654.248 1379.79 651.031ZM1394.97 666.896C1397.93 672.866 1401.31 678.765 1405.17 684.568C1406.59 684.165 1408.01 683.754 1409.44 683.338C1407.17 680.44 1404.99 677.518 1402.9 674.576C1400.21 672.035 1397.57 669.475 1394.97 666.896ZM1391.31 658.973C1392.44 660.141 1393.58 661.306 1394.73 662.467C1393.3 660.673 1391.89 658.871 1390.5 657.063C1390.77 657.7 1391.04 658.337 1391.31 658.973ZM1377.99 639.629C1378.22 641.585 1378.48 643.539 1378.79 645.489C1381.06 648.036 1383.36 650.568 1385.71 653.085C1385.1 651.464 1384.51 649.84 1383.94 648.214C1381.9 645.366 1379.92 642.504 1377.99 639.629ZM1369.06 625.63C1368.68 628.085 1368.35 630.542 1368.1 632.998C1370.41 635.805 1372.77 638.598 1375.18 641.375C1374.88 639.004 1374.64 636.629 1374.45 634.254C1372.6 631.391 1370.81 628.514 1369.06 625.63ZM1377.09 628.286C1377.17 629.97 1377.26 631.653 1377.39 633.335C1378.54 635.108 1379.71 636.876 1380.9 638.64C1380.44 637.068 1380.01 635.494 1379.59 633.919C1378.74 632.044 1377.9 630.167 1377.09 628.286ZM1361.22 612.064C1360.07 614.779 1358.99 617.502 1357.99 620.229C1360.42 623.411 1362.9 626.578 1365.44 629.727C1365.77 627.027 1366.18 624.328 1366.67 621.634C1364.8 618.454 1362.98 615.263 1361.22 612.064ZM1371.35 613.933C1370.79 616.333 1370.28 618.738 1369.83 621.146C1371.22 623.48 1372.63 625.809 1374.08 628.131C1373.98 625.63 1373.93 623.13 1373.93 620.633C1373.04 618.401 1372.18 616.168 1371.35 613.933ZM1354.29 598.903C1352.32 601.747 1350.44 604.606 1348.65 607.476C1350.98 610.784 1353.37 614.079 1355.83 617.357C1356.92 614.458 1358.11 611.564 1359.38 608.684C1357.63 605.43 1355.94 602.169 1354.29 598.903ZM1366.64 600.439C1365.27 603.156 1363.96 605.887 1362.73 608.627C1364.29 611.494 1365.88 614.356 1367.53 617.209C1368.11 614.401 1368.77 611.599 1369.49 608.808C1368.5 606.019 1367.55 603.228 1366.64 600.439ZM1373.84 604.335C1373.42 605.802 1373.01 607.273 1372.63 608.746C1373.1 610.078 1373.59 611.41 1374.08 612.74C1374.15 611.1 1374.23 609.463 1374.33 607.828C1374.16 606.663 1373.99 605.498 1373.84 604.335ZM1362.66 587.518C1360.44 590.371 1358.3 593.247 1356.24 596.14C1357.75 599.188 1359.32 602.231 1360.93 605.269C1362.32 602.278 1363.79 599.301 1365.33 596.344C1364.4 593.399 1363.51 590.456 1362.66 587.518ZM1348.35 586.493C1345.59 589.377 1342.93 592.285 1340.36 595.208C1341.9 597.591 1343.48 599.974 1345.1 602.355C1345.65 603.161 1346.21 603.965 1346.76 604.77C1348.66 601.765 1350.66 598.773 1352.75 595.802C1352.45 595.196 1352.15 594.591 1351.86 593.984L1351.86 593.982C1350.64 591.487 1349.47 588.99 1348.35 586.493ZM1372.21 590.031C1370.96 592.243 1369.75 594.467 1368.57 596.7C1369.31 599.032 1370.08 601.364 1370.87 603.695C1371.52 601.422 1372.2 599.157 1372.91 596.902C1372.66 594.607 1372.42 592.315 1372.21 590.031ZM1359.4 575.449C1356.39 578.333 1353.44 581.247 1350.58 584.186C1351.84 587.036 1353.17 589.887 1354.56 592.738L1354.56 592.739C1354.61 592.843 1354.66 592.946 1354.71 593.05C1356.93 589.979 1359.24 586.93 1361.62 583.908C1361.58 583.783 1361.55 583.657 1361.51 583.531L1361.15 582.244C1360.53 579.978 1359.95 577.713 1359.4 575.449ZM1371.18 576.994C1369.05 579.516 1366.97 582.059 1364.93 584.622C1365.69 587.289 1366.48 589.96 1367.3 592.632C1368.74 589.982 1370.22 587.35 1371.75 584.738C1371.54 582.146 1371.35 579.564 1371.18 576.994ZM1566.9 225.047C1543.45 234.704 1520.37 244.653 1498.1 255.209L1495.75 256.329C1396.4 303.819 1337.72 359.136 1314.24 417.87C1291.85 473.885 1301.36 533.299 1338.66 592.536C1341.35 589.497 1344.14 586.48 1347.02 583.487C1324.05 530.472 1323.04 477.418 1345.97 427.259L1345.98 427.254L1346.83 425.439C1355.72 406.718 1367.96 388.814 1382.32 371.065L1382.32 371.061C1393.63 357.179 1405.88 343.285 1419.02 329.167L1421.65 326.341C1446.42 299.822 1478.67 275.019 1518.65 251.634C1534.28 242.478 1550.4 233.679 1566.9 225.047ZM1377.2 581.528C1376.4 582.847 1375.6 584.171 1374.82 585.5C1374.95 586.983 1375.08 588.468 1375.22 589.955C1375.64 588.726 1376.08 587.499 1376.52 586.277C1376.73 584.689 1376.96 583.105 1377.2 581.528ZM1583.85 219.704C1561.94 230.892 1540.66 242.254 1520.23 254.222C1480.42 277.503 1448.41 302.141 1423.88 328.407L1423.88 328.41C1410.66 342.524 1398.33 356.389 1386.94 370.216L1384.68 372.98C1370.41 390.624 1358.32 408.33 1349.56 426.773L1348.72 428.561C1326.34 477.512 1327.1 529.269 1349.27 581.179C1352.3 578.092 1355.42 575.034 1358.61 572.012C1347.27 521.01 1356.23 470.566 1385.89 423.229L1385.89 423.227C1397.54 404.736 1412.54 387.501 1428.01 370.039C1440.57 355.826 1452.92 341.404 1464.21 325.889C1483.76 299.014 1509.04 274.294 1540.61 250.357L1540.62 250.356L1542.98 248.578C1556.14 238.732 1569.74 229.183 1583.85 219.704ZM1370.63 565.096C1367.68 567.722 1364.77 570.381 1361.92 573.066C1362.53 575.717 1363.2 578.369 1363.92 581.021C1366.2 578.193 1368.53 575.392 1370.91 572.62L1370.87 572.053C1370.75 569.731 1370.67 567.412 1370.63 565.096ZM1379.5 567.426C1377.64 569.501 1375.8 571.596 1373.98 573.708C1374.11 575.883 1374.26 578.066 1374.42 580.255C1375.73 578.086 1377.06 575.932 1378.41 573.797C1378.77 571.659 1379.13 569.535 1379.5 567.426ZM1601.69 211.53C1580.91 225.091 1561.23 238.61 1542.48 252.756C1511.08 276.563 1486.01 301.087 1466.67 327.683C1455.29 343.312 1442.87 357.817 1430.3 372.046L1430.3 372.047C1415.29 388.98 1400.89 405.53 1389.54 423.153L1388.45 424.861C1359.54 471.014 1350.6 520.036 1361.15 569.62C1364.25 566.732 1367.4 563.881 1370.59 561.067C1370.73 512.045 1389.42 464.202 1425.7 419.496L1425.7 419.494L1427.05 417.85C1441.11 400.906 1457.99 385.354 1473.6 369.282L1473.6 369.281L1474.83 368.009C1487.52 354.854 1498.62 341.134 1506.8 325.646L1506.8 325.643C1521.14 298.607 1539.54 273.619 1562.58 249.398C1574.82 236.52 1587.71 224.069 1601.69 211.53ZM1381.78 555.436C1379.04 557.748 1376.31 560.092 1373.6 562.464C1373.61 564.75 1373.66 567.039 1373.76 569.329C1375.98 566.785 1378.24 564.267 1380.51 561.781C1380.9 559.663 1381.32 557.547 1381.78 555.436ZM1387.64 558.561C1386.19 560.1 1384.75 561.653 1383.32 563.218C1383.3 563.335 1383.27 563.451 1383.25 563.568V563.57C1383.03 564.824 1382.8 566.083 1382.58 567.346C1383.78 565.528 1384.98 563.725 1386.19 561.938C1386.67 560.806 1387.15 559.68 1387.64 558.561ZM1611.09 207.263C1594.28 221.981 1579.09 236.443 1564.79 251.483C1541.91 275.538 1523.67 300.316 1509.47 327.091C1500.85 343.416 1489.09 357.743 1475.79 371.391C1459.51 388.146 1442.28 403.955 1428.06 421.41C1392.8 464.857 1374.44 511.122 1373.63 558.408C1376.7 555.743 1379.8 553.116 1382.9 550.531C1394.31 503.304 1422.4 457.911 1465.22 415.815C1473.74 407.396 1483 399.52 1492.21 391.799C1501.45 384.064 1510.63 376.49 1519.05 368.628C1532.89 355.657 1543.65 341.967 1549.26 325.537C1558.53 298.363 1569.75 273.241 1584.37 248.557L1585.5 246.663C1593.59 233.173 1602.37 220.018 1612.55 206.686C1612.06 206.878 1611.58 207.07 1611.09 207.263ZM1393.18 546.048C1390.65 548.08 1388.13 550.143 1385.61 552.232C1385.19 554 1384.79 555.77 1384.42 557.542C1386.67 555.136 1388.92 552.763 1391.18 550.426C1391.83 548.964 1392.5 547.505 1393.18 546.048ZM1618.08 204.497C1606.14 219.747 1596.13 234.697 1586.98 250.125C1572.47 274.62 1561.33 299.557 1552.12 326.564C1546.29 343.617 1535.16 357.692 1521.14 370.832L1521.14 370.833C1512.64 378.762 1503.39 386.396 1494.19 394.106C1484.97 401.829 1475.79 409.638 1467.37 417.967L1467.36 417.969C1426.05 458.585 1398.69 502.139 1386.84 547.277C1389.98 544.709 1393.12 542.184 1396.25 539.71C1418.89 494.437 1456.03 451.601 1505.17 412.029L1507.04 410.538C1516.43 403.121 1526.33 396.234 1535.93 389.485C1546.18 382.273 1556.09 375.218 1564.77 367.78L1566.11 366.613C1579.88 354.533 1589.42 341.564 1591.9 325.37V325.366L1593.47 315.254C1597.13 291.83 1600.78 269.584 1606.35 247.738L1606.35 247.732C1610.2 232.872 1614.65 218.276 1621.11 203.308C1620.09 203.708 1619.08 204.103 1618.08 204.497ZM1402.6 538.584C1401.29 539.605 1399.97 540.635 1398.66 541.674C1398.3 542.398 1397.94 543.124 1397.59 543.85C1399.06 542.362 1400.52 540.891 1401.97 539.438C1402.18 539.154 1402.39 538.869 1402.6 538.584ZM1625.12 201.729C1618.06 217.498 1613.34 232.836 1609.27 248.545C1602.94 273.348 1599.1 298.688 1594.87 325.896C1592.17 343.6 1581.49 357.449 1566.77 370.067C1557.97 377.608 1547.95 384.738 1537.71 391.942C1527.44 399.16 1516.95 406.455 1507.1 414.373C1460.33 452.039 1424.6 492.571 1401.97 535.216C1404.52 533.234 1407.06 531.289 1409.56 529.381C1443.43 486 1489.43 445.491 1544.98 408.361C1556.26 400.808 1568.17 393.972 1579.44 387.291C1590.75 380.594 1601.42 374.052 1610.35 367.034L1610.36 367.029L1611.76 365.923C1626.07 354.451 1634.88 341.779 1634.58 325.201C1634.08 297.816 1630.19 272.479 1628.44 247.093C1627.32 231.518 1626.95 216.076 1629.15 200.146C1627.79 200.679 1626.45 201.206 1625.12 201.729ZM1632.38 198.879C1629.95 215.126 1630.29 230.897 1631.45 246.958V246.963C1633.16 271.968 1637.08 297.8 1637.58 325.226C1637.92 343.67 1627.71 357.384 1612.26 369.398C1603.16 376.547 1592.33 383.175 1581.03 389.87C1569.71 396.58 1557.9 403.36 1546.71 410.856C1495.36 445.181 1452.27 482.346 1419.47 521.922L1421.77 520.213C1466.84 478.27 1522.17 439.658 1584.62 404.555C1597.31 397.428 1610.54 391.113 1622.84 384.959C1635.18 378.788 1646.58 372.778 1655.78 366.217L1655.79 366.212L1656.52 365.689C1664.07 360.275 1669.92 354.515 1673.53 348.032C1677.25 341.38 1678.64 333.892 1677 325.064C1671.8 297.618 1660.23 272.063 1650.37 246.354C1644.16 230.255 1638.73 214.06 1636.5 197.268C1635.11 197.81 1633.74 198.347 1632.38 198.879ZM1639.38 196.141C1641.49 212.843 1646.88 229.037 1653.18 245.352L1653.18 245.355C1662.95 270.834 1674.69 296.79 1679.95 324.588V324.591C1681.73 334.095 1680.22 342.282 1676.18 349.535C1672.28 356.525 1666.06 362.579 1658.32 368.131L1657.57 368.667C1648.17 375.372 1636.58 381.469 1624.25 387.638C1611.88 393.825 1598.76 400.086 1586.15 407.168L1582.96 408.968C1531.57 438.065 1485.15 469.531 1445.43 503.257C1499.25 465.896 1559.7 431.797 1624.56 400.904L1624.56 400.902L1627.2 399.666C1640.41 393.532 1653.95 388.13 1666.45 382.853C1679.82 377.206 1692 371.703 1701.53 365.544L1701.54 365.543L1702.3 365.045C1710.14 359.887 1715.99 354.329 1719.19 347.974C1722.47 341.475 1723.05 333.994 1719.91 324.932L1719.91 324.931C1714.44 309.248 1705.74 294.204 1695.95 279.319C1691.06 271.879 1685.9 264.496 1680.74 257.097C1675.59 249.704 1670.44 242.295 1665.57 234.832C1657 221.665 1649.27 208.263 1643.98 194.339C1642.43 194.946 1640.9 195.546 1639.38 196.141ZM1632.96 195.312C1632.96 195.346 1632.95 195.382 1632.94 195.417C1634 195.005 1635.06 194.589 1636.13 194.171C1636.11 194.053 1636.1 193.934 1636.09 193.815C1635.04 194.318 1633.99 194.817 1632.96 195.312ZM1638.97 192.442C1638.99 192.64 1639 192.838 1639.02 193.036C1640.32 192.53 1641.62 192.019 1642.94 191.503C1642.84 191.231 1642.75 190.957 1642.65 190.685C1641.41 191.275 1640.18 191.863 1638.97 192.442ZM1633.73 191.231C1633.71 191.363 1633.68 191.495 1633.66 191.627C1634.36 191.289 1635.08 190.947 1635.79 190.605C1635.78 190.412 1635.76 190.219 1635.75 190.025C1635.07 190.429 1634.4 190.832 1633.73 191.231ZM1638.64 188.303C1638.66 188.608 1638.68 188.914 1638.7 189.219C1639.69 188.748 1640.69 188.272 1641.69 187.794C1641.58 187.432 1641.46 187.069 1641.35 186.706C1640.44 187.243 1639.54 187.773 1638.64 188.303ZM1638.47 184.517C1638.48 184.636 1638.48 184.756 1638.48 184.876C1639.14 184.488 1639.8 184.098 1640.47 183.706C1640.42 183.512 1640.36 183.318 1640.31 183.123C1639.69 183.59 1639.08 184.054 1638.47 184.517ZM1638.73 180.515C1638.98 180.324 1639.23 180.13 1639.49 179.938C1639.48 179.886 1639.46 179.834 1639.45 179.781C1639.21 180.026 1638.97 180.271 1638.73 180.515Z" fill="#1977C2" fill-opacity="0.2"/>
<path d="M398.321 0C387.399 28.7666 368.224 57.1622 349.288 80.5713L346.449 84.0645C317.001 120.148 284.231 155.989 257.397 192.746C229.725 230.653 208.611 269.228 204.258 309.431C203.178 319.4 202.843 329.701 202.995 340.264C203.026 333.221 203.367 326.243 204.109 319.348C208.677 276.446 231.135 235.528 260.201 195.704C289.242 155.916 325.126 116.913 356.555 78.1162C375.143 55.1636 393.789 27.804 405.345 0H408.626C396.942 28.6292 377.816 56.695 358.919 80.0283L358.918 80.0293C327.309 119.048 291.654 157.766 262.652 197.502C233.676 237.202 211.587 277.615 207.103 319.741C206.12 328.858 205.847 338.135 206.077 347.544C206.12 342.275 206.369 337.016 206.868 331.772L207.095 329.556C211.944 284.715 235.451 241.954 265.84 200.335C296.201 158.753 333.681 118 366.476 77.459C384.936 54.6294 403.462 27.6174 415.604 0H418.915C406.622 28.4326 387.62 56.1462 368.841 79.3701C335.864 120.136 298.617 160.601 268.291 202.134C237.992 243.63 214.852 285.887 210.087 329.954C207.559 353.186 210.083 376.798 214.285 400.678C216.386 412.617 218.902 424.6 221.409 436.632C223.914 448.655 226.41 460.726 228.46 472.799C236.663 521.111 237.77 569.716 203.807 616.866L202.673 618.421C178.59 650.997 137.987 679.115 88.8662 700.635C61.4772 712.634 31.4023 722.597 0 730.144V727.047C30.9576 719.562 60.5959 709.72 87.5928 697.893C137.237 676.144 177.831 647.741 201.345 615.084C234.63 568.874 233.645 521.241 225.492 473.221C223.453 461.211 220.969 449.191 218.463 437.163C215.959 425.144 213.432 413.112 211.321 401.117C211.275 400.853 211.23 400.589 211.184 400.325C214.06 420.38 217.515 440.866 219.746 461.204C225.075 509.78 223.579 558.63 191.048 603.736C168.157 635.553 128.799 663.895 81.0156 685.718C55.9783 697.152 28.5948 706.81 0 714.248V711.136C28.1298 703.77 55.0627 694.246 79.6992 682.994C127.226 661.289 166.094 633.215 188.585 601.954L188.586 601.953L189.328 600.915C220.512 556.97 222.013 509.389 216.754 461.45C214.095 437.211 209.749 413.158 206.631 389.239C205.808 382.925 205.076 376.635 204.485 370.38C204.655 372.606 204.832 374.84 205.021 377.082C206.998 400.637 209.879 425.092 211.124 449.47C213.616 498.282 209.591 547.351 178.567 590.405C156.637 620.765 118.993 648.783 73.3281 670.578C50.592 681.43 25.8385 690.751 0 698.059V694.926C25.3528 687.702 49.6418 678.531 71.9678 667.875C117.377 646.202 154.558 618.451 176.107 588.619C206.548 546.372 210.6 498.13 208.119 449.543C206.877 425.221 204.011 400.951 202.021 377.252C200.098 354.344 199.002 332.033 201.058 311.059L201.267 309.033C205.704 268.057 227.184 228.978 254.946 190.948C281.816 154.142 314.802 118.031 344.101 82.1328L346.924 78.6602C365.565 55.616 384.257 27.9311 395.075 0H398.321Z" fill="#1977C2" fill-opacity="0.2"/>
<path d="M387.924 0C377.849 28.9255 358.56 57.7132 339.517 81.2158C310.79 116.728 278.362 151.946 251.966 188.095C225.597 224.207 205.497 260.943 201.424 299.203C199.252 319.49 199.622 341.853 200.494 365.326C201.365 388.767 202.74 413.328 202.551 437.861C202.173 486.935 195.55 536.25 165.958 577.261L164.968 578.616C143.944 607.063 108.493 634.206 65.6064 655.614C45.1992 665.801 23.0833 674.701 0 681.832V678.674C22.5769 671.643 44.2133 662.911 64.1992 652.935C107.511 631.314 142.971 603.912 163.498 575.476C192.555 535.206 199.165 486.643 199.541 437.759C199.729 413.313 198.36 388.873 197.486 365.357C196.641 342.609 196.26 320.736 198.233 300.738L198.432 298.809C202.588 259.771 223.056 222.532 249.515 186.297C275.946 150.098 308.608 114.592 337.152 79.3047L337.153 79.3027L339.332 76.5918C357.357 53.975 375.101 26.9897 384.712 0H387.924Z" fill="#1977C2" fill-opacity="0.2"/>
<path d="M377.272 0C368.555 28.0001 350.235 56.1428 331.822 79.2715L329.747 81.8574C302.461 115.617 271.664 149.082 246.573 183.449C221.51 217.778 202.389 252.698 198.452 289.077C196.375 308.388 196 330.339 195.742 353.679C195.485 376.993 195.344 401.676 193.72 426.35C190.473 475.675 181.292 525.213 153.2 564.13L152.26 565.419C132.282 592.5 98.5251 619.325 57.7041 640.698C39.6781 650.136 20.2534 658.521 0 665.4V662.212C19.7261 655.452 38.6554 647.255 56.2471 638.045C97.4616 616.466 131.232 589.387 150.738 562.345L150.739 562.344C178.342 524.103 187.48 475.247 190.717 426.076C192.334 401.501 192.475 376.91 192.732 353.566C192.99 330.248 193.364 308.156 195.459 288.682L195.46 288.681C199.48 251.527 218.969 216.103 244.122 181.651C269.248 147.237 300.278 113.479 327.381 79.9463L327.382 79.9453C346.214 56.6737 365.098 28.1875 374.095 0H377.272Z" fill="#1977C2" fill-opacity="0.2"/>
<path d="M366.425 0C358.606 29.1428 339.126 58.8034 319.978 82.499L319.977 82.502C294.055 114.469 264.849 146.192 241.084 178.771C217.344 211.315 199.276 244.411 195.619 278.85L195.618 278.853C193.634 297.19 192.525 318.722 191.149 341.919C189.775 365.095 188.137 389.902 185.097 414.708C179.021 464.282 167.322 514.06 140.743 550.969L140.742 550.97C121.93 577.021 89.5073 604.03 50.1562 625.704C34.4223 634.37 17.5622 642.19 0 648.763V645.54C17.0135 639.11 33.3598 631.498 48.6445 623.079C87.1317 601.881 118.786 575.626 137.404 550.385L138.281 549.184C164.419 512.887 176.048 463.72 182.109 414.269C185.138 389.562 186.771 364.834 188.145 341.664C189.432 319.961 190.493 299.594 192.264 281.948L192.627 278.455C196.367 243.241 214.801 209.64 238.631 176.974C262.436 144.34 291.87 112.336 317.614 80.5879C336.518 57.1957 355.489 28.2589 363.288 0H366.425Z" fill="#1977C2" fill-opacity="0.2"/>
<path d="M355.299 0C349.131 28.237 330.563 57.3829 311.906 80.7598L310.044 83.0742C285.563 113.288 257.987 143.237 235.523 174.012C213.086 204.75 195.995 236.01 192.475 268.567C188.773 303.244 185.141 353.174 176.197 403.035C167.257 452.875 152.97 502.901 127.822 537.768C110.053 562.394 79.3461 589.076 42.0947 610.714C28.8139 618.428 14.6862 625.509 0 631.632V628.355C14.1168 622.405 27.7135 615.564 40.5264 608.121C77.5276 586.628 107.889 560.197 125.361 535.981C150.114 501.664 164.311 452.179 173.234 402.435C182.154 352.711 185.766 302.98 189.481 268.174V268.172L189.661 266.61C193.632 233.848 210.896 202.595 233.071 172.215C255.573 141.387 283.379 111.153 307.682 81.1592C326.725 57.6872 345.816 28.2679 352.199 0H355.299Z" fill="#1977C2" fill-opacity="0.2"/>
<path d="M343.91 0C343.756 0.983346 343.586 1.96842 343.397 2.9541C338.167 30.3371 320.124 58.8297 302.025 81.5371L300.273 83.7158C277.232 112.178 251.252 140.379 230.092 169.36C208.958 198.306 192.88 227.723 189.641 258.339V258.342C186.123 291.098 179.343 341.248 167.545 391.377C155.758 441.46 138.92 491.71 115.203 524.535C98.4785 547.736 69.527 574.087 34.375 595.689C23.4655 602.394 11.9471 608.647 0 614.211V610.87C11.3569 605.517 22.3252 599.537 32.7441 593.134C67.6483 571.683 96.2874 545.577 112.741 522.751L112.742 522.75C136.108 490.412 152.843 440.636 164.613 390.623C176.006 342.217 182.709 293.763 186.309 261.062L186.647 257.947C189.97 226.554 206.416 196.63 227.64 167.562C248.837 138.529 275.051 110.042 297.91 81.8037L297.911 81.8027C316.513 58.8425 335.18 29.8557 340.439 2.32227C340.588 1.54688 340.723 0.772349 340.85 0H343.91Z" fill="#1977C2" fill-opacity="0.2"/>
<path d="M332.325 0C332.094 2.83132 331.699 5.68093 331.154 8.53906C326.101 35.0763 308.219 62.7123 290.652 84.3447C268.981 111.058 244.627 137.512 224.79 164.695C204.979 191.845 189.913 219.424 186.805 248.117L186.474 251.062C182.849 282.077 173.078 330.945 158.912 379.757C144.3 430.106 124.956 480.599 102.743 511.375C87.0587 533.105 59.8254 559.125 26.7754 580.703C18.2159 586.291 9.25703 591.586 0 596.435V593.013C8.64771 588.423 17.0357 583.441 25.0781 578.19C57.8846 556.772 84.8387 530.986 100.281 509.591C122.186 479.241 141.421 429.156 156.019 378.857C170.149 330.166 179.881 281.463 183.483 250.646L183.812 247.72C187.004 218.253 202.436 190.171 222.338 162.897C242.215 135.658 266.794 108.926 288.289 82.4307L288.29 82.4297C305.785 60.8858 323.283 33.7123 328.197 7.90918C328.703 5.25228 329.073 2.61322 329.298 0H332.325Z" fill="#1977C2" fill-opacity="0.2"/>
</svg>
